<?xml version="1.0" encoding="utf-8"?>
<svg viewBox="0 0 166.458 41.204" xmlns="http://www.w3.org/2000/svg">
  <defs>
    <linearGradient id="a" x1="1.033" y1="0.5" x2="-0.069" y2="0.5" gradientUnits="objectBoundingBox">
      <stop offset="0" stop-color="#84c4f0"/>
      <stop offset="1" stop-color="#63cbc5"/>
    </linearGradient>
    <linearGradient id="c" x1="1.03" y1="0.5" x2="-0.026" y2="0.591" gradientUnits="objectBoundingBox">
      <stop offset="0" stop-color="#a9e1c1"/>
      <stop offset="0.599" stop-color="#63cbc5"/>
      <stop offset="1" stop-color="#63cbc5"/>
    </linearGradient>
  </defs>
  <g transform="matrix(1, 0, 0, 1, 1701, 2399.5039062500005)">
    <g transform="translate(-1701 -2399.504)">
      <path d="M286.841-568.842a4.962,4.962,0,0,0-4.963-4.963,4.959,4.959,0,0,0-4.961,4.963,4.959,4.959,0,0,0,4.961,4.961,4.963,4.963,0,0,0,4.963-4.961" transform="translate(-276.917 589.565)" fill="#5ac4b1"/>
      <path d="M394.638-739.639a.584.584,0,0,0,.068.071l.011.013c.078.065.154.144.241.211v.007c.047.034.093.079.143.111.066.056.133.1.2.149s.135.095.206.139c.055.032.105.064.159.1.089.049.178.1.271.146a.838.838,0,0,1,.115.054c.107.05.219.093.331.133a.163.163,0,0,0,.066.028,3.3,3.3,0,0,0,.4.129h0a4.544,4.544,0,0,0,.928.153c.128.011.255.027.386.027.083,0,.167-.015.252-.02l.013,0a4.956,4.956,0,0,0,4.655-4.622v0c0-.114.015-.229.015-.349,0-.013,0-.025,0-.036a4.306,4.306,0,0,0-.039-.542,2.064,2.064,0,0,0-.031-.214c-.018-.113-.044-.229-.065-.337-.024-.078-.047-.161-.065-.246s-.062-.187-.1-.283-.06-.172-.1-.243c-.041-.109-.089-.2-.136-.309-.076-.138-.156-.273-.243-.405-.032-.058-.071-.123-.112-.182-.066-.088-.134-.183-.2-.263a1.341,1.341,0,0,0-.12-.141c-.075-.1-.153-.177-.235-.268a.577.577,0,0,1-.091-.084,4.955,4.955,0,0,0-3.442-1.367,4.929,4.929,0,0,0-3.343,1.343l-.008.014c-.065.056-.133.124-.195.18-.021.02-.04.036-.063.059a8.043,8.043,0,0,1-5.422,2.129,8.067,8.067,0,0,1-5.47-2.115c-.015-.012-.02-.025-.036-.037s-.045-.041-.068-.066v.011c-.019-.02-.037-.036-.054-.051a4.931,4.931,0,0,0-3.434-1.372A4.967,4.967,0,0,0,375.095-743a5.007,5.007,0,0,0,1.146,3.129l.023.027a3.87,3.87,0,0,0,.276.3.965.965,0,0,0,.083.077,2.9,2.9,0,0,0,.24.216c.045.048.1.075.138.118a1.919,1.919,0,0,1,.209.153l.206.131a1.388,1.388,0,0,0,.162.1c.084.051.17.1.265.146a.552.552,0,0,0,.118.056,3.6,3.6,0,0,0,.332.144.216.216,0,0,1,.06.02c.131.048.268.088.405.128h0a4.547,4.547,0,0,0,.923.156c.13,0,.261.015.391.02.079,0,.169-.019.248-.02l.006,0a4.909,4.909,0,0,0,3.051-1.288,1.228,1.228,0,0,1,.12-.107,1.319,1.319,0,0,0,.105-.108,8.1,8.1,0,0,1,5.5-2.207,8.054,8.054,0,0,1,5.451,2.086l.078.08" transform="translate(-366.216 748.076)" fill="url(#a)"/>
      <path d="M394.638-739.639a.584.584,0,0,0,.068.071l.011.013c.078.065.154.144.241.211v.007c.047.034.093.079.143.111.066.056.133.1.2.149s.135.095.206.139c.055.032.105.064.159.1.089.049.178.1.271.146a.838.838,0,0,1,.115.054c.107.05.219.093.331.133a.163.163,0,0,0,.066.028,3.3,3.3,0,0,0,.4.129h0a4.544,4.544,0,0,0,.928.153c.128.011.255.027.386.027.083,0,.167-.015.252-.02l.013,0a4.956,4.956,0,0,0,4.655-4.622v0c0-.114.015-.229.015-.349,0-.013,0-.025,0-.036a4.306,4.306,0,0,0-.039-.542,2.064,2.064,0,0,0-.031-.214c-.018-.113-.044-.229-.065-.337-.024-.078-.047-.161-.065-.246s-.062-.187-.1-.283-.06-.172-.1-.243c-.041-.109-.089-.2-.136-.309-.076-.138-.156-.273-.243-.405-.032-.058-.071-.123-.112-.182-.066-.088-.134-.183-.2-.263a1.341,1.341,0,0,0-.12-.141c-.075-.1-.153-.177-.235-.268a.577.577,0,0,1-.091-.084,4.955,4.955,0,0,0-3.442-1.367,4.929,4.929,0,0,0-3.343,1.343l-.008.014c-.065.056-.133.124-.195.18-.021.02-.04.036-.063.059a8.043,8.043,0,0,1-5.422,2.129,8.067,8.067,0,0,1-5.47-2.115c-.015-.012-.02-.025-.036-.037s-.045-.041-.068-.066v.011c-.019-.02-.037-.036-.054-.051a4.931,4.931,0,0,0-3.434-1.372A4.967,4.967,0,0,0,375.095-743a5.007,5.007,0,0,0,1.146,3.129l.023.027a3.87,3.87,0,0,0,.276.3.965.965,0,0,0,.083.077,2.9,2.9,0,0,0,.24.216c.045.048.1.075.138.118a1.919,1.919,0,0,1,.209.153l.206.131a1.388,1.388,0,0,0,.162.1c.084.051.17.1.265.146a.552.552,0,0,0,.118.056,3.6,3.6,0,0,0,.332.144.216.216,0,0,1,.06.02c.131.048.268.088.405.128h0a4.547,4.547,0,0,0,.923.156c.13,0,.261.015.391.02.079,0,.169-.019.248-.02l.006,0a4.909,4.909,0,0,0,3.051-1.288,1.228,1.228,0,0,1,.12-.107,1.319,1.319,0,0,0,.105-.108,8.1,8.1,0,0,1,5.5-2.207,8.054,8.054,0,0,1,5.451,2.086l.078.08" transform="translate(-366.216 779.28)" fill="url(#a)"/>
      <path d="M494.948-567.6c.021.027.042.053.063.075l.013.008c.081.07.156.144.243.216l0,0c.044.036.089.078.141.113.068.057.133.1.2.15s.138.093.209.139a1.628,1.628,0,0,1,.159.1c.091.053.18.1.272.146a1.04,1.04,0,0,1,.117.056c.105.048.212.087.329.131a.216.216,0,0,0,.067.027,2.973,2.973,0,0,0,.4.127h0a4.287,4.287,0,0,0,.929.154,3.5,3.5,0,0,0,.378.029,2.381,2.381,0,0,0,.254-.023l.013.008a4.963,4.963,0,0,0,4.655-4.622v0c.009-.113.014-.227.014-.346,0-.015,0-.027,0-.037a4.668,4.668,0,0,0-.034-.54c-.01-.073-.023-.144-.037-.217-.013-.112-.041-.225-.063-.336-.021-.077-.042-.163-.068-.245s-.06-.188-.089-.285-.063-.17-.1-.244c-.041-.107-.086-.2-.138-.307-.072-.139-.153-.273-.239-.406-.037-.056-.076-.118-.113-.18-.068-.09-.131-.183-.206-.266-.032-.043-.078-.094-.12-.144a2.943,2.943,0,0,0-.237-.26.987.987,0,0,1-.086-.088,4.976,4.976,0,0,0-3.442-1.368,4.935,4.935,0,0,0-3.345,1.346l-.007.011c-.07.056-.133.127-.195.18a.737.737,0,0,1-.066.058,8.036,8.036,0,0,1-5.419,2.135,8.092,8.092,0,0,1-5.472-2.118.434.434,0,0,0-.034-.037.461.461,0,0,0-.071-.066v.011a.538.538,0,0,0-.052-.054,4.95,4.95,0,0,0-3.436-1.367,4.958,4.958,0,0,0-4.929,4.982,4.96,4.96,0,0,0,1.143,3.129l.021.025a3.606,3.606,0,0,0,.276.3c.027.028.053.054.081.079.076.074.161.143.243.216.045.046.1.077.138.119a1.809,1.809,0,0,1,.206.149c.068.046.138.087.208.135a.926.926,0,0,0,.16.095,2.9,2.9,0,0,0,.268.146.4.4,0,0,0,.115.054c.107.053.217.1.334.148a.2.2,0,0,1,.06.019c.133.049.268.09.405.132h0a4.5,4.5,0,0,0,.928.152c.128.008.258.017.384.023.081-.006.167-.015.251-.023l.007.008a4.937,4.937,0,0,0,3.051-1.3.845.845,0,0,1,.122-.1c.037-.039.065-.07.1-.11a8.048,8.048,0,0,1,5.5-2.205,8.024,8.024,0,0,1,5.449,2.083c.024.026.052.049.081.08" transform="translate(-457.458 591.595)" fill="url(#c)"/>
    </g>
    <path d="M-63.538-6.825a8.363,8.363,0,0,1-6.411-2.451q-2.3-2.451-2.3-7.014v-1.622q0-4.827,2.112-7.448a7.322,7.322,0,0,1,6.052-2.621A6.931,6.931,0,0,1-58.3-25.524q1.942,2.457,1.98,7.276v2.617H-66.932a5.553,5.553,0,0,0,1,3.323A3.378,3.378,0,0,0-63.2-11.256a6,6,0,0,0,4.469-1.829l2.093,3.224a6.893,6.893,0,0,1-2.847,2.2A9.773,9.773,0,0,1-63.538-6.825Zm-3.356-12.52h5.336v-.49a5.7,5.7,0,0,0-.6-2.772,2.1,2.1,0,0,0-1.961-.943,2.218,2.218,0,0,0-2.027,1A6.88,6.88,0,0,0-66.894-19.345ZM-48.416-27.6l.151,2.017a5.66,5.66,0,0,1,4.733-2.395q5.261,0,5.411,7.372V-7.2h-5.355v-13.01a4.688,4.688,0,0,0-.519-2.517,2.019,2.019,0,0,0-1.82-.782,2.492,2.492,0,0,0-2.263,1.49V-7.2h-5.355V-27.6ZM-25.262-12.67a1.666,1.666,0,0,0-.651-1.254,12.846,12.846,0,0,0-2.894-1.556,12.04,12.04,0,0,1-4.535-2.772,5.266,5.266,0,0,1-1.235-3.564,5.7,5.7,0,0,1,1.933-4.422,7.35,7.35,0,0,1,5.119-1.744,7.958,7.958,0,0,1,5.374,1.735,5.83,5.83,0,0,1,2.017,4.657h-5.336q0-2.489-2.074-2.489a1.926,1.926,0,0,0-1.4.528,1.949,1.949,0,0,0-.547,1.471,1.544,1.544,0,0,0,.6,1.2,13.268,13.268,0,0,0,2.847,1.48,11.781,11.781,0,0,1,4.61,2.687,5.477,5.477,0,0,1,1.348,3.837,5.366,5.366,0,0,1-2.055,4.393,8.321,8.321,0,0,1-5.393,1.659,8.584,8.584,0,0,1-3.96-.877,6.649,6.649,0,0,1-2.687-2.442,6.286,6.286,0,0,1-.971-3.375h5.072a3.232,3.232,0,0,0,.651,2.093,2.549,2.549,0,0,0,2.008.7Q-25.262-10.728-25.262-12.67ZM-8.519-6.825a8.363,8.363,0,0,1-6.411-2.451q-2.3-2.451-2.3-7.014v-1.622q0-4.827,2.112-7.448A7.322,7.322,0,0,1-9.065-27.98a6.931,6.931,0,0,1,5.789,2.457q1.942,2.457,1.98,7.276v2.617H-11.913a5.553,5.553,0,0,0,1,3.323,3.378,3.378,0,0,0,2.734,1.051,6,6,0,0,0,4.469-1.829l2.093,3.224a6.893,6.893,0,0,1-2.847,2.2A9.773,9.773,0,0,1-8.519-6.825Zm-3.356-12.52h5.336v-.49a5.7,5.7,0,0,0-.6-2.772A2.1,2.1,0,0,0-9.1-23.55a2.218,2.218,0,0,0-2.027,1A6.881,6.881,0,0,0-11.875-19.345ZM10.751-12.67a1.666,1.666,0,0,0-.651-1.254A12.846,12.846,0,0,0,7.207-15.48a12.04,12.04,0,0,1-4.535-2.772,5.266,5.266,0,0,1-1.235-3.564A5.7,5.7,0,0,1,3.37-26.236,7.35,7.35,0,0,1,8.489-27.98a7.958,7.958,0,0,1,5.374,1.735,5.83,5.83,0,0,1,2.018,4.657H10.544q0-2.489-2.074-2.489a1.926,1.926,0,0,0-1.4.528,1.949,1.949,0,0,0-.547,1.471,1.544,1.544,0,0,0,.6,1.2A13.268,13.268,0,0,0,9.978-19.4a11.781,11.781,0,0,1,4.61,2.687,5.477,5.477,0,0,1,1.348,3.837,5.366,5.366,0,0,1-2.055,4.393A8.321,8.321,0,0,1,8.489-6.825,8.584,8.584,0,0,1,4.529-7.7a6.649,6.649,0,0,1-2.687-2.442,6.286,6.286,0,0,1-.971-3.375H5.943a3.232,3.232,0,0,0,.651,2.093,2.549,2.549,0,0,0,2.008.7Q10.751-10.728,10.751-12.67Zm7.881-5.393a11.077,11.077,0,0,1,2.187-7.278,7.432,7.432,0,0,1,6.052-2.64,7.474,7.474,0,0,1,6.09,2.64,11.14,11.14,0,0,1,2.187,7.316v1.3a11.1,11.1,0,0,1-2.168,7.278A7.443,7.443,0,0,1,26.91-6.825a7.48,7.48,0,0,1-6.1-2.63,11.134,11.134,0,0,1-2.178-7.306Zm5.355,1.339q0,5.468,2.923,5.468,2.7,0,2.9-4.563l.019-2.244A8.585,8.585,0,0,0,29.06-22.2a2.408,2.408,0,0,0-2.187-1.348A2.347,2.347,0,0,0,24.751-22.2a8.675,8.675,0,0,0-.764,4.139Z" transform="translate(-1569.692 -2361.488)" style="fill: rgb(255, 255, 255);"/>
  </g>
</svg>